# xmcd
#
# Track frame offsets: 
#        150
#        26584
#        40551
#        59067
#        79705
#        98675
#        112131
#        127773
#        149179
#        166314
#        182832
#        202860
#        219881
#        250906
#        264827
#
# Disc length: 3714 seconds
#
# Revision: 0
# Processed by: cddbd v1.5.2PL0 Copyright (c) Steve Scherf et al.
# Submitted via: ExactAudioCopy v0.95b2
#
DISCID=cc0e800f
DTITLE=Juliana Andrade - Violeira do Universo
DYEAR=1900
DGENRE=Country
TTITLE0=Colcha de Retalhos - Depois que a rosa mudou - Disco voador
TTITLE1=Sonho Lindo
TTITLE2=Carro de boi
TTITLE3=Mãe de carvão - Rolinha Cabocla - Quando cai a Chuva
TTITLE4=Pedacinhos
TTITLE5=Pagode do século
TTITLE6=Viola no luar
TTITLE7=Velhas cartas - Recordando - Peneira velha
TTITLE8=Violão amigo
TTITLE9=Violeira do universo
TTITLE10=Viola Faceira
TTITLE11=O vôo da borboleta
TTITLE12=Último adeus - Seresteiro da lua - Saudade
TTITLE13=Encantos da natureza
TTITLE14=Casal sem juízo
EXTD=
EXTT0=
EXTT1=
EXTT2=
EXTT3=
EXTT4=
EXTT5=
EXTT6=
EXTT7=
EXTT8=
EXTT9=
EXTT10=
EXTT11=
EXTT12=
EXTT13=
EXTT14=
PLAYORDER=
